# xmcd
#
# Track frame offsets: 
#        150
#        92418
#        105700
#        137394
#        144422
#        172169
#        185954
#        198157
#        208311
#        227132
#        248981
#        265083
#        276706
#        284297
#        289572
#        306625
#        311891
#        322432
#
# Disc length: 4732 seconds
#
# Revision: 0
# Processed by: cddbd v1.5.2PL0 Copyright (c) Steve Scherf et al.
# Submitted via: ExactAudioCopyFreeDBPlugin 1.0
#
DISCID=2c127a12
DTITLE=Joana Carneiro - Joana Carneiro Orquestra Gulbenkian Tchaikovsk
DTITLE=i
DYEAR=1900
DGENRE=
TTITLE0=Romeu e Julieta
TTITLE1=O lago dos cisnes suite op 20A
TTITLE2=O lago dos cisnes suite op 20A
TTITLE3=O lago dos cisnes suite op 20A
TTITLE4=O lago dos cisnes suite op 20A
TTITLE5=O lago dos cisnes suite op 20A
TTITLE6=O lago dos cisnes suite op 20A
TTITLE7=O lago dos cisnes suite op 20A
TTITLE8=O lago dos cisnes suite op 20A
TTITLE9=O lago dos cisnes suite op 20A
TTITLE10=O quebra-nozes Suite op 71A
TTITLE11=O quebra-nozes Suite op 71A
TTITLE12=O quebra-nozes Suite op 71A
TTITLE13=O quebra-nozes Suite op 71A
TTITLE14=O quebra-nozes Suite op 71A
TTITLE15=O quebra-nozes Suite op 71A
TTITLE16=O quebra-nozes Suite op 71A
TTITLE17=O quebra-nozes Suite op 71A
EXTD=
EXTT0=
EXTT1=
EXTT2=
EXTT3=
EXTT4=
EXTT5=
EXTT6=
EXTT7=
EXTT8=
EXTT9=
EXTT10=
EXTT11=
EXTT12=
EXTT13=
EXTT14=
EXTT15=
EXTT16=
EXTT17=
PLAYORDER=
